<svg width="18" height="12" viewBox="0 0 18 12" fill="none" xmlns="http://www.w3.org/2000/svg">
<path d="M1.21648 7.64644L3.56627 9.99623C3.56772 9.99768 3.56928 9.99902 3.57073 10.0005C3.57219 10.0019 3.57392 10.0039 3.57559 10.0056C4.2613 10.6912 5.1653 11.1154 6.13089 11.2046C7.09648 11.2937 8.0628 11.0423 8.86254 10.4939C9.66228 11.0423 10.6286 11.2937 11.5942 11.2046C12.5598 11.1154 13.4638 10.6912 14.1495 10.0056L16.4993 7.65582C17.2314 6.92353 17.6636 5.9442 17.7112 4.90982C17.7588 3.87543 17.4183 2.86052 16.7565 2.06408C16.0948 1.26769 15.1594 0.747117 14.1338 0.604492C13.1082 0.461868 12.0662 0.707412 11.2123 1.29305C10.5208 0.818876 9.70209 0.565011 8.86371 0.564732C8.02527 0.564508 7.20644 0.817926 6.5147 1.2917C5.66175 0.702442 4.61926 0.45349 3.59207 0.593658C2.56488 0.733881 1.62726 1.25306 0.963338 2.04934C0.299468 2.84561 -0.0426302 3.86135 0.0041667 4.89697C0.0510195 5.93265 0.483416 6.91335 1.21648 7.64644ZM12.4882 2.46973C13.0187 2.21637 13.6216 2.15873 14.1905 2.30694C14.7594 2.4551 15.2575 2.79965 15.597 3.27963C15.9364 3.75961 16.0952 4.34407 16.0453 4.92981C15.9955 5.51556 15.7402 6.06482 15.3245 6.48053L12.9748 8.83033C12.6101 9.19456 12.1416 9.43697 11.6336 9.52425C11.1255 9.61152 10.603 9.5394 10.1376 9.31779L11.7997 7.65582C12.4372 7.02172 12.8498 6.19662 12.9748 5.30625C13.0023 5.11158 13.0162 4.91524 13.0164 4.71861C13.018 3.94132 12.8 3.17939 12.3876 2.52055C12.4208 2.50279 12.4544 2.48592 12.4882 2.4699L12.4882 2.46973ZM7.10022 2.95613C7.56814 2.49128 8.20124 2.23094 8.86081 2.232C9.52038 2.23312 10.1526 2.49564 10.619 2.96199C11.0853 3.4284 11.3479 4.0606 11.349 4.72017C11.35 5.37974 11.0897 6.01282 10.6249 6.48076L8.86254 8.24307L7.10022 6.48076C6.63365 6.01301 6.37163 5.3793 6.37163 4.71861C6.37163 4.05798 6.63365 3.42426 7.10022 2.95652L7.10022 2.95613ZM2.39137 2.9468C2.75782 2.5813 3.2288 2.33877 3.73916 2.25272C4.24952 2.16666 4.774 2.24138 5.24001 2.46654C5.27352 2.48268 5.30669 2.4996 5.33947 2.51731C4.92573 3.17688 4.70704 3.94004 4.70872 4.71861C4.70889 4.91523 4.72273 5.11158 4.75027 5.30625C4.87524 6.19662 5.28793 7.02172 5.92533 7.65582L7.5773 9.30773L7.58662 9.31706C7.1215 9.53857 6.59919 9.61075 6.09141 9.52368C5.58362 9.4366 5.11526 9.19454 4.75049 8.83072C4.74881 8.82904 4.74725 8.82725 4.74563 8.82558C4.74401 8.8239 4.74261 8.82279 4.74116 8.82133L2.40237 6.48254L2.3912 6.47138C1.92385 6.00396 1.66127 5.37003 1.66127 4.70906C1.66127 4.04809 1.92385 3.41416 2.39121 2.94674L2.39137 2.9468Z" fill="#0077C0"/>
</svg>
